<svg width="2000" height="2000" viewBox="0 0 2000 2000" fill="none" xmlns="http://www.w3.org/2000/svg">
<path d="M308.108 295.375C294.1 292.643 284.888 291.863 270 289.532L338.361 101C355.007 105.395 402.307 118.54 443.473 130.195C484.638 141.87 522.631 152.608 527.887 154.079C600.395 174.332 837.45 250.875 906.919 276.44C974.573 301.336 1000.62 311.043 1037.52 325.086C1075.82 339.665 1172.43 378.719 1196.62 389.4C1203.72 392.534 1236.76 407.093 1270.03 421.748C1575.22 556.147 1773.42 686.513 1920.38 849.515C1922.47 851.808 1932.16 865.45 1941.96 879.837C2078.2 1079.87 1972.41 1252.75 1647.48 1361.01C1588.73 1380.57 1490.69 1405.87 1418.98 1419.93L1373.65 1428.84L1352.09 1463.69C1178.07 1745.17 840.928 1844.78 542.507 1702.85C496.831 1681.13 488.002 1673.08 526.683 1688.44C539.602 1693.58 566.663 1702.12 586.807 1707.45C1066.33 1834.25 1479.97 1397.58 1325.84 927.28C1209.1 571.05 790.341 379.77 459.966 531.785C447.142 537.689 436.191 542.504 435.618 542.504C432.599 542.504 378.418 574.394 360.664 586.622C478.714 485.241 556.5 471.252 628 446.5C699.5 421.748 634.5 377.5 601.5 360.5C568.5 343.5 560.299 339.665 545.412 336.99C530.505 334.296 510.438 330.78 500.806 329.137C491.174 327.513 458.934 321.781 429.139 316.412C399.364 311.043 365.671 305.234 354.3 303.515C342.91 301.776 322.117 298.126 308.108 295.375Z" fill="#454890"/>
<path d="M264.007 1558.39L281.393 1541.01L264.305 1523.34C150.134 1405.24 88 1255.31 88 1098C88 744.927 402.164 454 793 454C1183.84 454 1498 744.927 1498 1098C1498 1451.07 1183.84 1742 793 1742H93.4167C91.2216 1742 89.2391 1740.66 88.4179 1738.67C87.5867 1736.67 88.0668 1734.29 89.5866 1732.77L264.007 1558.39Z" fill="#414141" stroke="#CF0E47" stroke-width="50"/>
</svg>
